<svg xmlns="http://www.w3.org/2000/svg" width="57.34" height="57.34" viewBox="0 0 57.34 57.34"><g id="Layer_2" data-name="Layer 2"><g id="Camada_1" data-name="Camada 1"><path d="M57.09,22V15.3a1.66,1.66,0,0,0-.92-1.5L29.42.43a1.65,1.65,0,0,0-1.5,0L1.17,13.8a1.68,1.68,0,0,0-.92,1.5V22a1.68,1.68,0,0,0,1.67,1.68H5.27a1.67,1.67,0,0,1,1.67,1.67V38.7a1.67,1.67,0,0,1-1.67,1.67h0a1.68,1.68,0,0,0-1.68,1.68v3.34a1.67,1.67,0,0,1-1.67,1.67h0A1.67,1.67,0,0,0,.25,48.73v6.69a1.67,1.67,0,0,0,1.67,1.67h53.5a1.66,1.66,0,0,0,1.67-1.67V48.73a1.67,1.67,0,0,0-1.67-1.67h0a1.67,1.67,0,0,1-1.67-1.67V42.05a1.68,1.68,0,0,0-1.67-1.68h0a1.66,1.66,0,0,1-1.67-1.67V25.33a1.66,1.66,0,0,1,1.67-1.67h3.34A1.67,1.67,0,0,0,57.09,22ZM3.59,20.31v-4L28.67,3.79,53.75,16.33v4Zm30.1,20.06V23.66h6.68V40.37ZM17,40.37V23.66h6.69V40.37ZM27,23.66h3.34V40.37H27Zm-16.72,0h3.34V40.37H10.28ZM53.75,53.75H3.59V50.41H53.75ZM6.94,47.06V43.72H50.41v3.34Zm40.12-6.69H43.72V23.66h3.34Z" style="fill:#7f410e;stroke:#f2f2f2;stroke-miterlimit:10;stroke-width:0.5px"/><rect x="23.66" y="11.95" width="10.03" height="3.34" rx="1.67" style="fill:#7f410e;stroke:#f2f2f2;stroke-miterlimit:10;stroke-width:0.5px"/></g></g></svg>