<svg xmlns="http://www.w3.org/2000/svg" width="63.7" height="47.23" viewBox="0 0 63.7 47.23"><g id="Layer_2" data-name="Layer 2"><g id="Camada_1" data-name="Camada 1"><path d="M57.39,28.18l-9.52-.68L41.58,17l-3.14-5.24V10.32a2.86,2.86,0,0,0-2.85-2.85,2.82,2.82,0,0,0-1,.19l-9,3.49.68-2.3a4.26,4.26,0,0,0-2.1-4.91L17,.13a1.1,1.1,0,0,0-1.46.4L5.12,17.2l-.22-.13a1.09,1.09,0,0,0-1.49.41s0,0,0,0L.13,23.65a1.09,1.09,0,0,0,.44,1.47l39.63,22a1.08,1.08,0,0,0,.53.14H57.11a6.6,6.6,0,0,0,6.59-6.59V35a6.82,6.82,0,0,0-6.31-6.78ZM45.58,28l-1.26.41L34.5,15.59,37,13.69ZM10.37,13l.57-.88,3.61,2.69A6.29,6.29,0,0,1,17,20.78L16.86,24,7.05,18.3ZM57.11,45H41L2.57,23.72l2.22-4.17,36.4,20.94a1,1,0,0,0,.55.15H61.5A4.39,4.39,0,0,1,57.11,45ZM26.7,13c3-1,8.64-3.29,8.64-3.29a.66.66,0,0,1,.9.62v1.21l-4,3A1.09,1.09,0,0,0,32.07,16h0l11,14.28a1.09,1.09,0,0,0,1.22.37l3.08-1,9.87.7A4.62,4.62,0,0,1,61.5,35v3.48H42L34.5,34.1,37,31.52A1.1,1.1,0,0,0,35.46,30l-2.93,3-4.17-2.4,4.18-3.35a1.11,1.11,0,0,0,.17-1.55,1.1,1.1,0,0,0-1.54-.17l-4.86,3.89-3.58-2.06,5.43-4.52a1.1,1.1,0,0,0-1.41-1.69l-6,5-1.7-1L19.18,21a8.43,8.43,0,0,0-3.32-7.89L12.12,10.3l1.41-2.22,1.16-1.87,2.19-3.65,6.17,3.31a2.08,2.08,0,0,1,1,2.38l-.77,2.59C22.7,13,23.7,14,26.7,13Z" style="fill:#ff7c3b"/><path d="M0,39.54a1.1,1.1,0,0,0,1.1,1.1H15.38a1.1,1.1,0,0,0,0-2.2H1.1A1.1,1.1,0,0,0,0,39.54Z" style="fill:#ff7c3b"/><path d="M27.46,45H1.1a1.1,1.1,0,1,0,0,2.2H27.46a1.1,1.1,0,0,0,0-2.2Z" style="fill:#ff7c3b"/></g></g></svg>