<svg xmlns="http://www.w3.org/2000/svg" width="73.76" height="57.13" viewBox="0 0 73.76 57.13"><g id="Layer_2" data-name="Layer 2"><g id="Camada_1" data-name="Camada 1"><path d="M1.25,43.4A21.87,21.87,0,0,0,16,38.75c12.39-9.3,20.91-2.33,20.91,2.32V55.79H1.25Z" style="fill:none;stroke:#39b54a;stroke-linecap:round;stroke-linejoin:round;stroke-width:2.5px"/><path d="M72.51,43.4A21.84,21.84,0,0,1,57.8,38.75c-12.4-9.3-20.92-2.33-20.92,2.32V55.79H72.51Z" style="fill:none;stroke:#39b54a;stroke-linecap:round;stroke-linejoin:round;stroke-width:2.5px"/><path d="M1.64,55.4s6.73,1.42,14.17-4.17c12.4-9.29,20.92,0,20.92,4.65" style="fill:none;stroke:#39b54a;stroke-linecap:round;stroke-linejoin:round;stroke-width:2.5px"/><path d="M71.92,55.17S65.19,56.58,57.74,51c-12.39-9.3-20.91,0-20.91,4.64" style="fill:none;stroke:#39b54a;stroke-linecap:round;stroke-linejoin:round;stroke-width:2.5px"/><line x1="49.28" y1="34.1" x2="52.69" y2="28.94" style="fill:none;stroke:#39b54a;stroke-linecap:round;stroke-linejoin:round;stroke-width:2.5px"/><path d="M52.5,29.38S48,20.11,56,9.41c5.63-7.59,15.93-8.16,15.93-8.16s1,3.68.47,10.86l-5.48,2.17,3,4.74S63.38,28.14,52.5,29.38Z" style="fill:none;stroke:#39b54a;stroke-linecap:round;stroke-linejoin:round;stroke-width:2.5px"/></g></g></svg>