<svg xmlns="http://www.w3.org/2000/svg" width="69.64" height="61.35" viewBox="0 0 69.64 61.35"><g id="Layer_2" data-name="Layer 2"><g id="Camada_1" data-name="Camada 1"><path d="M67.07,32.68H65.14a22.38,22.38,0,0,0,3.93-12.51A20.44,20.44,0,0,0,64,6.46,17.39,17.39,0,0,0,50.88.57a18.44,18.44,0,0,0-13.8,6.26,24.53,24.53,0,0,0-2.26,2.89,24.53,24.53,0,0,0-2.26-2.89A18.44,18.44,0,0,0,18.76.57,17.39,17.39,0,0,0,5.61,6.46a20.49,20.49,0,0,0-5,13.71A22.46,22.46,0,0,0,4.5,32.68H2.57a2,2,0,0,0,0,4H7.51c4.24,5,10.23,10.12,17.42,16.23,2.73,2.32,5.56,4.73,8.57,7.36a2,2,0,0,0,2.64,0c3-2.63,5.84-5,8.57-7.36,7.19-6.11,13.18-11.2,17.42-16.23h4.94a2,2,0,0,0,0-4ZM4.58,20.17c0-8.89,6.1-15.59,14.18-15.59A14.3,14.3,0,0,1,29.52,9.46,19.7,19.7,0,0,1,33,14.58a2,2,0,0,0,1.85,1.24h0a2,2,0,0,0,1.86-1.24,19.4,19.4,0,0,1,3.45-5.12A14.26,14.26,0,0,1,50.88,4.58c8.08,0,14.18,6.7,14.18,15.59,0,4.45-1.75,8.44-4.87,12.51H52.12L46.65,21.75a2,2,0,0,0-3.59,0L38.83,30.2l-2.21-4.44a2,2,0,0,0-1.94-1.1A2,2,0,0,0,32.92,26l-2,6-4.2-14a2,2,0,0,0-3.8-.12L17.37,32.68H9.45c-3.12-4.07-4.87-8.06-4.87-12.51ZM42.11,49.86c-2.34,2-4.75,4-7.29,6.25-2.54-2.21-4.95-4.26-7.29-6.25-5.8-4.93-10.78-9.16-14.6-13.17h5.83a2,2,0,0,0,1.88-1.3l3.93-10.48,4.31,14.37a2,2,0,0,0,1.9,1.43h0a2,2,0,0,0,1.9-1.37l2.48-7.45L37,35.58a2,2,0,0,0,3.59,0l4.23-8.45,4.22,8.45a2,2,0,0,0,1.8,1.11h5.83c-3.82,4-8.8,8.24-14.6,13.17Z" style="fill:#3fa9f5;stroke:#f2f2f2;stroke-miterlimit:10;stroke-width:1.13275069923205px"/></g></g></svg>