<svg xmlns="http://www.w3.org/2000/svg" xmlns:xlink="http://www.w3.org/1999/xlink" width="25.27" height="25.3" viewBox="0 0 25.27 25.3"><defs><clipPath id="clip-path" transform="translate(0 -0.06)"><rect width="25.3" height="25.43" style="fill:none"/></clipPath></defs><g id="Layer_2" data-name="Layer 2"><g id="Camada_1" data-name="Camada 1"><g style="clip-path:url(#clip-path)"><path d="M20,15.73a2.48,2.48,0,0,0-1.81-.82,2.57,2.57,0,0,0-1.82.82l-1.69,1.68-.41-.21c-.19-.1-.37-.19-.53-.29a18.14,18.14,0,0,1-4.39-4,11.18,11.18,0,0,1-1.45-2.28c.44-.4.85-.81,1.24-1.21L9.57,9a2.45,2.45,0,0,0,0-3.69L8.11,3.81,7.62,3.3c-.32-.33-.66-.67-1-1a2.51,2.51,0,0,0-1.79-.79A2.57,2.57,0,0,0,3,2.31H3L1.18,4.15A4,4,0,0,0,0,6.63a9.24,9.24,0,0,0,.69,4,22.87,22.87,0,0,0,4.08,6.81A25.07,25.07,0,0,0,13.16,24a13,13,0,0,0,4.7,1.39h.34A4,4,0,0,0,21.28,24l0,0c.28-.33.6-.64.93-1s.47-.44.7-.68a2.67,2.67,0,0,0,.8-1.85,2.55,2.55,0,0,0-.82-1.83Zm1.91,5.63h0l-.65.65a13.13,13.13,0,0,0-1,1.07,2.61,2.61,0,0,1-2,.85H18a11.56,11.56,0,0,1-4.17-1.25A23.67,23.67,0,0,1,5.91,16.5a21.88,21.88,0,0,1-3.85-6.41,7.71,7.71,0,0,1-.6-3.34A2.54,2.54,0,0,1,2.2,5.16L4,3.34A1.24,1.24,0,0,1,4.83,3a1.14,1.14,0,0,1,.78.38h0c.33.31.64.62,1,1l.51.52L8.56,6.29a1,1,0,0,1,0,1.65L8.1,8.4c-.45.46-.88.89-1.34,1.3l0,0a1.1,1.1,0,0,0-.28,1.21l0,.05a11.93,11.93,0,0,0,1.72,2.82h0a19.66,19.66,0,0,0,4.74,4.32,5.27,5.27,0,0,0,.66.35c.19.1.37.19.53.29l.06,0a1.05,1.05,0,0,0,.53.14,1.15,1.15,0,0,0,.81-.37l1.83-1.83a1.21,1.21,0,0,1,.8-.4,1.07,1.07,0,0,1,.77.39l3,3a1.05,1.05,0,0,1,0,1.67Z" transform="translate(0 -0.06)"/><path d="M13.66,6.08A6.67,6.67,0,0,1,17.34,8a6.77,6.77,0,0,1,1.91,3.68.72.72,0,0,0,.71.6h.13a.72.72,0,0,0,.59-.83,8.3,8.3,0,0,0-6.77-6.77.72.72,0,0,0-.84.58.73.73,0,0,0,.59.84Z" transform="translate(0 -0.06)"/><path d="M25.26,11.22A13.7,13.7,0,0,0,14.11.07a.72.72,0,0,0-.83.59.71.71,0,0,0,.59.83,12.24,12.24,0,0,1,10,10,.7.7,0,0,0,.71.59h.12a.71.71,0,0,0,.59-.82Z" transform="translate(0 -0.06)"/></g></g></g></svg>