<svg xmlns="http://www.w3.org/2000/svg" width="675.8" height="873.53" viewBox="0 0 675.8 873.53"><g id="Layer_2" data-name="Layer 2"><g id="Camada_1" data-name="Camada 1"><path d="M122.69,11.4,93.35,105a15,15,0,0,1-1.92,4L60.26,154.54a15,15,0,0,1-12.38,6.54h0a15,15,0,0,0-14.56,18.54l3.39,13.92a15,15,0,0,1-.48,8.71L16.75,255.42a15,15,0,0,0-.91,5.3l.33,33.68a15,15,0,0,1-.79,5L1.7,339.6a15,15,0,0,0-.8,4.83v6.79A15,15,0,0,0,13,365.93l33.84,6.65a15,15,0,0,1,11.5,10.53l5,17.09a15.06,15.06,0,0,1,.59,4.17V435a15,15,0,0,0,15,15H99.51a15,15,0,0,0,8.82-2.87l16.34-11.89a15,15,0,0,1,18.37.58l15.58,12.89a14.9,14.9,0,0,1,2.72,2.94L267.4,602.76a15,15,0,0,1-1.42,19L166.07,726.54a14.92,14.92,0,0,0-2.35,3.23l-16.15,30a15,15,0,0,0-1.79,7.11v26.31a15.07,15.07,0,0,1-1.31,6.13l-9.08,20.25a15.07,15.07,0,0,0-1.31,6.13v5.61a15,15,0,0,0,22.22,13.13l19.48-10.73a14.87,14.87,0,0,1,3.18-1.3l25.38-7.13a14.92,14.92,0,0,1,7.12-.23l46.13,9.66a15.27,15.27,0,0,0,3.08.32h30.17c.38,0,.76,0,1.15,0l23.78,1.83a14.93,14.93,0,0,1,6.73,2.2L351,856.68,370.32,870a15,15,0,0,0,18.16-.9l41.35-34.93a14.68,14.68,0,0,0,2.67-2.95l11.27-16.37a15,15,0,0,1,14.46-6.34l19.12,2.73a14.93,14.93,0,0,0,6.27-.44L524.54,799a15,15,0,0,1,5.8-.5c8.58,1,33.83,4.37,53.68,13.19,24.29,10.8,58.35,29.8,58.35,29.8L652.63,847a15,15,0,0,0,22-13.22l.23-817.84a15,15,0,0,0-15-15H137A15,15,0,0,0,122.69,11.4Z" style="fill:none;stroke:#4d4d4d;stroke-miterlimit:10;stroke-width:1.79974426158481px"/><path d="M166.34,451.38a4.28,4.28,0,0,0-5.84,5.84,54.28,54.28,0,0,1,7.5,23.56c1.74,24.43-7.21,67.79-8.23,72.6a4.41,4.41,0,0,1-.27.85l-13.19,29.66a4.29,4.29,0,0,0,1.45,5.24l11,7.78a4.27,4.27,0,0,1,1.81,3.5V640.9a4.4,4.4,0,0,0,.25,1.44l4,11.22a4.28,4.28,0,0,1,.2,2.1l-5.19,33.77a4.27,4.27,0,0,0,.29,2.34l7.34,17.12a4.26,4.26,0,0,1,.28,2.42l-3,17.05a4.28,4.28,0,0,0,2.09,4.45l9.35,5.34a4.25,4.25,0,0,0,2.12.56h8.1a4.32,4.32,0,0,1,3.13,1.36l7.25,7.78a4.29,4.29,0,0,0,7-1.19l.13-.29a4.29,4.29,0,0,1,3.21-2.49l7.18-1.2a4.33,4.33,0,0,1,3,.63l13.26,8.58a4.26,4.26,0,0,0,2.32.69h19.42a4.28,4.28,0,0,0,4.28-4.28v-3.59a4.28,4.28,0,0,1,4.15-4.28l21.93-.71a4.29,4.29,0,0,1,3.86,2.16l5.34,9.34a4.29,4.29,0,0,0,2.25,1.9L322,763.2a4.26,4.26,0,0,0,2.64.09l15-4.27a4.29,4.29,0,0,0,3.11-4.12v-6.47a4.27,4.27,0,0,1,3.12-4.12l26.23-7.38a4,4,0,0,0,.45-.16l28.83-11.71a4.21,4.21,0,0,1,1.11-.28l30.28-3.56a4.65,4.65,0,0,0,1.11-.29l26.38-10.71a4.3,4.3,0,0,0,2.67-4V681.31a4.39,4.39,0,0,1,.31-1.61l15.12-37.36a4.46,4.46,0,0,1,.79-1.26l23.71-26.35a4.23,4.23,0,0,0,1-1.91l6.42-28.06a4.28,4.28,0,0,1,4-3.33L534,580.7a4.28,4.28,0,0,0,3.19-1.61l8.58-10.72a4.28,4.28,0,0,1,3.35-1.61h10.15a4.32,4.32,0,0,0,1.42-.24L576,561.15a4.31,4.31,0,0,0,2.83-3.44l5.13-36a4,4,0,0,0,0-.6v-3.78a4.28,4.28,0,0,0-6.95-3.35l-17.73,14.05a4.27,4.27,0,0,1-4.57.48L545.71,524a4.24,4.24,0,0,1-2.05-2.22l-13-32.16a4.52,4.52,0,0,0-.59-1L499.28,449.1a4.31,4.31,0,0,1-.8-3.57l9.63-42.87a4.81,4.81,0,0,0,.1-.93V389.67a4.56,4.56,0,0,1,.08-.82l5.05-26.09a4.27,4.27,0,0,1,2.42-3.08l19.32-8.85a4.3,4.3,0,0,0,1.48-1.13l18.71-22.11a4.29,4.29,0,0,0,1-2.77v-12a4.23,4.23,0,0,1,.64-2.25L574.56,282a4.26,4.26,0,0,0,.33-3.85l-7.61-19a4.31,4.31,0,0,0-3-2.58l-16-3.81a4.19,4.19,0,0,1-2.14-1.24L534.6,239.11a4.14,4.14,0,0,0-1.16-.88l-23.31-12.06a4.27,4.27,0,0,1-2.24-4.61L511.46,203a4.29,4.29,0,0,0-1.29-3.95l-21.39-19.86a4.29,4.29,0,0,1-.57-5.63l9.14-12.8a4.27,4.27,0,0,0-1.06-6l-24.8-17.05a4.3,4.3,0,0,1-1.64-2.18l-5.55-16.66a4.32,4.32,0,0,0-1.69-2.21l-33-22a4.28,4.28,0,0,0-3.85-.46L407.16,101a4.29,4.29,0,0,0-2.73,3.21l-4,20.37a4.27,4.27,0,0,1-2.41,3.07L377.8,137a4.27,4.27,0,0,1-3.58,0l-15.82-7.25a4.29,4.29,0,0,0-5.92,2.75l-5.6,20.32a4.33,4.33,0,0,0,.33,3.14l7.44,14.12a4.31,4.31,0,0,1,0,3.91l-7.86,15.72a4.44,4.44,0,0,1-1.09,1.38l-15,12.52a4.32,4.32,0,0,1-2.11.95L313,206.88a4.26,4.26,0,0,0-2.77,1.64L285.48,241a4.3,4.3,0,0,1-2.61,1.61l-14.55,2.77a4.3,4.3,0,0,0-3.47,3.93l-.56,8.41a4.3,4.3,0,0,0,1.5,3.55l16,13.62a4.42,4.42,0,0,1,1.21,1.69l6.69,16.92a4.31,4.31,0,0,1-.31,3.78l-7.59,12.64a4.28,4.28,0,0,0,1.83,6.06l15.46,7.4a4.31,4.31,0,0,1,2.16,2.36l4.88,13,.13.31,3,6.45a4.28,4.28,0,0,1-4.53,6l-2.34-.36a4.27,4.27,0,0,1-2.81-1.7l-8.5-11.6a4.39,4.39,0,0,0-1.54-1.3l-19.64-9.82a4.26,4.26,0,0,0-3.34-.2l-13.22,4.66a4.2,4.2,0,0,0-1.4.82l-28.18,24.77a4.3,4.3,0,0,0-1.43,3.75l1.24,9.88a4.27,4.27,0,0,1-1.92,4.12l-14.91,9.69a4.31,4.31,0,0,0-1.78,2.39l-4,13.6a4.53,4.53,0,0,0-.17,1.21v9.19a4.28,4.28,0,0,1-1.81,3.49L180.82,427a4.28,4.28,0,0,0-1.75,4.2l1.84,11.05a4.27,4.27,0,0,1-2.1,4.42l-8.23,4.7a4.28,4.28,0,0,1-4.24,0Z" style="fill:#ccc"/></g></g></svg>