<svg xmlns="http://www.w3.org/2000/svg" xmlns:xlink="http://www.w3.org/1999/xlink" viewBox="0 0 1957.15 557.5"><defs><style>.cls-1{fill:none;}.cls-2{clip-path:url(#clip-path);}.cls-3{clip-path:url(#clip-path-2);}.cls-4{fill:#ff624d;}.cls-5{fill:#131430;}.cls-6{fill:url(#Gradiente_sem_nome_32);}.cls-7{fill:url(#Gradiente_sem_nome_29);}</style><clipPath id="clip-path" transform="translate(20.5 -114)"><rect class="cls-1" width="1921" height="606"/></clipPath><clipPath id="clip-path-2" transform="translate(20.5 -114)"><rect class="cls-1" x="1" y="55" width="1920" height="666"/></clipPath><linearGradient id="Gradiente_sem_nome_32" x1="950.03" y1="330.11" x2="944.91" y2="236.71" gradientUnits="userSpaceOnUse"><stop offset="0" stop-color="#454236"/><stop offset="0.21" stop-color="#3f3c31"/><stop offset="0.5" stop-color="#2f2d24"/><stop offset="0.81" stop-color="#13130f"/><stop offset="1"/></linearGradient><linearGradient id="Gradiente_sem_nome_29" x1="958.44" y1="453.42" x2="982" y2="294.3" gradientUnits="userSpaceOnUse"><stop offset="0" stop-color="#703e3e"/><stop offset="0.17" stop-color="#653838"/><stop offset="0.46" stop-color="#462727"/><stop offset="0.85" stop-color="#150c0c"/><stop offset="1"/></linearGradient></defs><g id="Layer_2" data-name="Layer 2"><g id="Camada_1" data-name="Camada 1"><g class="cls-2"><g class="cls-3"><circle class="cls-4" cx="306.5" cy="112" r="112"/><path class="cls-5" d="M1,211.47s181.5-12,253-7.47c111,7,196.74,30,279,30,45,0,166,5.18,204,13.49S790,273,860,264.11c57.26-7.27,119-9.11,190,2.77,25.59,4.29,78.18,3.41,129,0C1252,262,1457,292,1457,292L1,352.47Z" transform="translate(20.5 -114)"/><path class="cls-6" d="M-20,391S958.08,289,1179,267s389-23,564,30c85.07,25.76,161,48,186,34,17.21-9.64,0,307,0,307L-17,639Z" transform="translate(20.5 -114)"/><path class="cls-7" d="M-20.5,288.5s282-7,533,23S907,378,1015,400s289.5,46.5,391.5,56.5,329,32,393,34,130-15,130-15v196H-17.5Z" transform="translate(20.5 -114)"/><path d="M-18.55,477.47S342,452,602,451c101.4-.39,283-9,468,0s360,4,460-11,265-47,336-47h55l8,213H-19Z" transform="translate(20.5 -114)"/></g></g></g></g></svg>