<svg xmlns="http://www.w3.org/2000/svg" width="322.07" height="51.27" viewBox="0 0 322.07 51.27"><g id="Layer_2" data-name="Layer 2"><g id="Camada_1" data-name="Camada 1"><path d="M156.9,23.67l-2.06-4.48c0-.05-.06-.06-.1-.06H152.9a.09.09,0,0,0-.09.09V23.6a.23.23,0,0,1-.25.26h-1.32a.24.24,0,0,1-.25-.26V13.13a.24.24,0,0,1,.25-.25h4.25a3,3,0,0,1,3.24,3.19A2.84,2.84,0,0,1,156.65,19c-.07,0-.08.07-.05.12l2.16,4.48a.19.19,0,0,1-.19.3h-1.38A.28.28,0,0,1,156.9,23.67Zm-4.09-9.13v3.08c0,.07,0,.1.09.1h2.34a1.56,1.56,0,0,0,1.67-1.61,1.58,1.58,0,0,0-1.67-1.66H152.9A.08.08,0,0,0,152.81,14.54Z" transform="translate(-3.63 -8.9)" style="fill:#fff"/><path d="M165.62,21.59c.09-.15.22-.18.34-.08l.76.59a.24.24,0,0,1,.06.35,3.46,3.46,0,0,1-3,1.53,3.25,3.25,0,0,1-3.29-2.22,5.85,5.85,0,0,1-.31-1.94,5.72,5.72,0,0,1,.17-1.66,3.25,3.25,0,0,1,3.31-2.43c2.09,0,3.11,1.22,3.42,3.21a8.48,8.48,0,0,1,.11,1.28.23.23,0,0,1-.25.25h-4.85c-.06,0-.09,0-.09.1a2.22,2.22,0,0,0,.09.69,1.78,1.78,0,0,0,1.86,1.19A2.07,2.07,0,0,0,165.62,21.59Zm-3.52-3.2a2.34,2.34,0,0,0-.13.66c0,.06,0,.09.08.09h3.15a.08.08,0,0,0,.09-.09,4.1,4.1,0,0,0-.09-.56,1.54,1.54,0,0,0-1.6-1.19A1.44,1.44,0,0,0,162.1,18.39Z" transform="translate(-3.63 -8.9)" style="fill:#fff"/><path d="M173.92,12.9h1.32a.23.23,0,0,1,.25.25V23.6a.24.24,0,0,1-.25.26h-1.32a.23.23,0,0,1-.25-.26v-.4c0-.08-.06-.11-.11,0a2.22,2.22,0,0,1-1.78.81,3,3,0,0,1-3-2.19,6.31,6.31,0,0,1-.28-2,6.35,6.35,0,0,1,.26-1.91,3,3,0,0,1,3-2.19,2.28,2.28,0,0,1,1.78.77c.05.06.11,0,.11,0V13.15A.23.23,0,0,1,173.92,12.9Zm-.28,7a3.72,3.72,0,0,0-.39-1.87,1.34,1.34,0,0,0-1.18-.68,1.42,1.42,0,0,0-1.25.65,3.48,3.48,0,0,0-.45,1.91,3.67,3.67,0,0,0,.37,1.79,1.43,1.43,0,0,0,1.32.75,1.37,1.37,0,0,0,1.22-.74A3.68,3.68,0,0,0,173.64,19.85Z" transform="translate(-3.63 -8.9)" style="fill:#fff"/><path d="M182.74,21.59c.09-.15.22-.18.34-.08l.75.59a.25.25,0,0,1,.07.35,3.46,3.46,0,0,1-3,1.53,3.25,3.25,0,0,1-3.29-2.22,5.85,5.85,0,0,1-.31-1.94,5.72,5.72,0,0,1,.17-1.66,3.24,3.24,0,0,1,3.3-2.43c2.1,0,3.12,1.22,3.43,3.21a10,10,0,0,1,.11,1.28.23.23,0,0,1-.25.25h-4.85a.09.09,0,0,0-.1.1,2.19,2.19,0,0,0,.1.69A1.78,1.78,0,0,0,181,22.45,2.1,2.1,0,0,0,182.74,21.59Zm-3.53-3.2a2.79,2.79,0,0,0-.12.66c0,.06,0,.09.08.09h3.15a.08.08,0,0,0,.09-.09,4.1,4.1,0,0,0-.09-.56,1.55,1.55,0,0,0-1.6-1.19A1.45,1.45,0,0,0,179.21,18.39Z" transform="translate(-3.63 -8.9)" style="fill:#fff"/><path d="M194.17,12.9h1.32a.23.23,0,0,1,.25.25V23.6a.24.24,0,0,1-.25.26h-1.32a.23.23,0,0,1-.25-.26v-.4c0-.08-.06-.11-.11,0A2.22,2.22,0,0,1,192,24a3,3,0,0,1-3-2.19,6.31,6.31,0,0,1-.28-2,6.35,6.35,0,0,1,.26-1.91,3,3,0,0,1,3-2.19,2.28,2.28,0,0,1,1.78.77c.05.06.11,0,.11,0V13.15A.23.23,0,0,1,194.17,12.9Zm-.28,7A3.72,3.72,0,0,0,193.5,18a1.34,1.34,0,0,0-1.18-.68,1.44,1.44,0,0,0-1.25.65,3.48,3.48,0,0,0-.45,1.91,3.67,3.67,0,0,0,.37,1.79,1.43,1.43,0,0,0,1.32.75,1.35,1.35,0,0,0,1.22-.74A3.68,3.68,0,0,0,193.89,19.85Z" transform="translate(-3.63 -8.9)" style="fill:#fff"/><path d="M203,21.59c.09-.15.22-.18.34-.08l.75.59a.25.25,0,0,1,.07.35,3.46,3.46,0,0,1-3,1.53,3.25,3.25,0,0,1-3.29-2.22,5.85,5.85,0,0,1-.31-1.94,5.72,5.72,0,0,1,.17-1.66A3.25,3.25,0,0,1,201,15.73c2.09,0,3.11,1.22,3.42,3.21a8.48,8.48,0,0,1,.11,1.28.23.23,0,0,1-.25.25h-4.85c-.06,0-.09,0-.09.1a2.22,2.22,0,0,0,.09.69,1.78,1.78,0,0,0,1.86,1.19A2.08,2.08,0,0,0,203,21.59Zm-3.52-3.2a2.34,2.34,0,0,0-.13.66c0,.06,0,.09.08.09h3.15a.08.08,0,0,0,.09-.09,4.1,4.1,0,0,0-.09-.56A1.55,1.55,0,0,0,201,17.3,1.43,1.43,0,0,0,199.47,18.39Z" transform="translate(-3.63 -8.9)" style="fill:#fff"/><path d="M216.07,23.65,215.58,22a.11.11,0,0,0-.11-.08h-4.1a.11.11,0,0,0-.11.08l-.49,1.61a.27.27,0,0,1-.28.21h-1.42c-.17,0-.25-.11-.21-.29l3.35-10.47a.28.28,0,0,1,.29-.2h1.83a.27.27,0,0,1,.28.2L218,23.57c0,.18,0,.29-.21.29h-1.42A.27.27,0,0,1,216.07,23.65Zm-4.25-3.11H215c.06,0,.09,0,.07-.11l-1.61-5.33c0-.07-.09-.07-.12,0l-1.61,5.33C211.73,20.51,211.76,20.54,211.82,20.54Z" transform="translate(-3.63 -8.9)" style="fill:#fff"/><path d="M219.25,21.69a5.57,5.57,0,0,1-.25-1.87,5.52,5.52,0,0,1,.25-1.85,3.28,3.28,0,0,1,3.3-2.24,3.36,3.36,0,0,1,3.34,2.15,2.37,2.37,0,0,1,.09.43c0,.18,0,.25-.2.29l-1.3.2a.22.22,0,0,1-.28-.19l0-.2a1.56,1.56,0,0,0-1.6-1.11A1.51,1.51,0,0,0,221,18.44a4.75,4.75,0,0,0-.16,1.39,5.66,5.66,0,0,0,.14,1.4,1.66,1.66,0,0,0,3.16.07.17.17,0,0,0,0-.07c0-.08.14-.26.3-.22l1.3.2a.22.22,0,0,1,.2.28c0,.1,0,.2-.06.31a3.58,3.58,0,0,1-6.64-.11Z" transform="translate(-3.63 -8.9)" style="fill:#fff"/><path d="M232.75,21.59c.09-.15.22-.18.34-.08l.75.59a.25.25,0,0,1,.07.35,3.46,3.46,0,0,1-3,1.53,3.25,3.25,0,0,1-3.29-2.22,5.85,5.85,0,0,1-.31-1.94,5.72,5.72,0,0,1,.17-1.66,3.24,3.24,0,0,1,3.3-2.43c2.1,0,3.12,1.22,3.43,3.21a10,10,0,0,1,.11,1.28.23.23,0,0,1-.25.25h-4.85a.09.09,0,0,0-.1.1,1.94,1.94,0,0,0,.1.69A1.78,1.78,0,0,0,231,22.45,2.1,2.1,0,0,0,232.75,21.59Zm-3.53-3.2a2.36,2.36,0,0,0-.12.66c0,.06,0,.09.08.09h3.14c.07,0,.1,0,.1-.09a2.86,2.86,0,0,0-.1-.56,1.53,1.53,0,0,0-1.59-1.19A1.45,1.45,0,0,0,229.22,18.39Z" transform="translate(-3.63 -8.9)" style="fill:#fff"/><path d="M235.65,21.73v-.08a.23.23,0,0,1,.25-.25h1.25c.16,0,.25,0,.25.11v.11c0,.51.61,1,1.52,1s1.41-.39,1.41-.91-.93-.77-2-1.11c-1.25-.38-2.65-.88-2.65-2.41s1.27-2.4,3.12-2.4,3.19,1,3.19,2.38c0,.11-.09.19-.25.19h-1.2c-.16,0-.25,0-.25-.09v-.1c0-.52-.55-.95-1.49-.95s-1.38.29-1.38.86.88.8,1.93,1.09c1.3.38,2.75.86,2.75,2.43S240.86,24,238.93,24,235.65,23,235.65,21.73Z" transform="translate(-3.63 -8.9)" style="fill:#fff"/><path d="M243.23,21.73v-.08a.23.23,0,0,1,.25-.25h1.25c.16,0,.25,0,.25.11v.11c0,.51.61,1,1.52,1s1.41-.39,1.41-.91-.93-.77-2-1.11c-1.25-.38-2.64-.88-2.64-2.41s1.26-2.4,3.11-2.4,3.19,1,3.19,2.38c0,.11-.09.19-.25.19h-1.2c-.16,0-.25,0-.25-.09v-.1c0-.52-.55-.95-1.49-.95s-1.38.29-1.38.86.88.8,1.93,1.09c1.3.38,2.75.86,2.75,2.43S248.44,24,246.51,24,243.23,23,243.23,21.73Z" transform="translate(-3.63 -8.9)" style="fill:#fff"/><path d="M251.31,21.62a5.85,5.85,0,0,1-.27-1.79,6.32,6.32,0,0,1,.25-1.78,3.34,3.34,0,0,1,3.4-2.32A3.3,3.3,0,0,1,258,18a5.3,5.3,0,0,1,.28,1.79A5.68,5.68,0,0,1,258,21.6a3.54,3.54,0,0,1-6.68,0Zm4.94-.46a4.07,4.07,0,0,0,.18-1.31,5.22,5.22,0,0,0-.16-1.32,1.62,1.62,0,0,0-1.63-1.23A1.6,1.6,0,0,0,253,18.53a5.22,5.22,0,0,0-.16,1.32,5.39,5.39,0,0,0,.16,1.31,1.64,1.64,0,0,0,1.64,1.26A1.6,1.6,0,0,0,256.25,21.16Z" transform="translate(-3.63 -8.9)" style="fill:#fff"/><path d="M259.69,21.73v-.08a.23.23,0,0,1,.25-.25h1.25c.16,0,.25,0,.25.11v.11c0,.51.61,1,1.52,1s1.41-.39,1.41-.91-.93-.77-2-1.11c-1.25-.38-2.65-.88-2.65-2.41s1.27-2.4,3.12-2.4,3.19,1,3.19,2.38c0,.11-.09.19-.25.19h-1.2c-.16,0-.25,0-.25-.09v-.1c0-.52-.55-.95-1.49-.95s-1.38.29-1.38.86.88.8,1.93,1.09c1.3.38,2.75.86,2.75,2.43S264.9,24,263,24,259.69,23,259.69,21.73Z" transform="translate(-3.63 -8.9)" style="fill:#fff"/><path d="M157.19,34.32v5.21a.23.23,0,0,1-.25.25h-1.31a.23.23,0,0,1-.25-.25v-.39c0-.08,0-.09-.11,0a3.12,3.12,0,0,1-2.26.82c-1.45,0-2.64-.72-2.64-2.37S151.54,35,153.62,35h1.66c.07,0,.1,0,.1-.09v-.36c0-.8-.47-1.29-1.46-1.29-.75,0-1.24.29-1.39.74-.05.16-.13.22-.28.2L150.84,34c-.16,0-.25-.09-.24-.2.19-1.24,1.47-2.13,3.27-2.13C155.89,31.66,157.19,32.79,157.19,34.32ZM155.38,37v-.72a.09.09,0,0,0-.1-.1H154c-1.09,0-1.8.43-1.8,1.21s.58,1,1.33,1C154.5,38.47,155.38,37.89,155.38,37Z" transform="translate(-3.63 -8.9)" style="fill:#fff"/><path d="M159,37.54a5.79,5.79,0,0,1-.26-1.78A6,6,0,0,1,159,34a3.34,3.34,0,0,1,3.4-2.32,3.29,3.29,0,0,1,3.28,2.3,5.27,5.27,0,0,1,.29,1.78,6,6,0,0,1-.27,1.79,3.54,3.54,0,0,1-6.69,0Zm5-.45a4.08,4.08,0,0,0,.17-1.31,5.27,5.27,0,0,0-.15-1.32,1.64,1.64,0,0,0-1.63-1.24,1.61,1.61,0,0,0-1.61,1.24,4.8,4.8,0,0,0-.16,1.32,4.94,4.94,0,0,0,.16,1.31,1.64,1.64,0,0,0,1.64,1.25A1.61,1.61,0,0,0,164,37.09Z" transform="translate(-3.63 -8.9)" style="fill:#fff"/><path d="M167.42,37.65v-.07a.23.23,0,0,1,.25-.25h1.26c.15,0,.25,0,.25.11v.1c0,.52.61,1,1.52,1s1.4-.4,1.4-.91-.92-.77-1.95-1.11c-1.26-.38-2.65-.88-2.65-2.42s1.27-2.39,3.12-2.39,3.19,1,3.19,2.38c0,.11-.09.19-.25.19h-1.21c-.15,0-.25,0-.25-.1v-.09c0-.52-.54-1-1.48-1s-1.38.3-1.38.87.88.79,1.93,1.09c1.29.38,2.75.86,2.75,2.43s-1.28,2.38-3.21,2.38S167.42,38.92,167.42,37.65Z" transform="translate(-3.63 -8.9)" style="fill:#fff"/><path d="M178.32,36.76v-.33a.24.24,0,0,1,.25-.25h1.29a.22.22,0,0,1,.25.24v.25c0,.92.88,1.67,2.32,1.67s1.92-.65,1.92-1.45-.81-1.27-2.5-1.93-3.42-1.3-3.42-3.29,1.48-3,3.68-3c2.38,0,4,1.3,4,3.22v.21a.23.23,0,0,1-.25.25h-1.29c-.15,0-.25-.08-.25-.19V32c0-.94-.79-1.75-2.27-1.75-1.15,0-1.81.5-1.81,1.37s.75,1.27,2.55,1.93c1.6.61,3.4,1.27,3.4,3.27,0,1.83-1.47,3.07-3.89,3.07S178.32,38.67,178.32,36.76Z" transform="translate(-3.63 -8.9)" style="fill:#fff"/><path d="M193.12,37.51a.22.22,0,0,1,.35-.07l.75.59a.23.23,0,0,1,.06.34,3.45,3.45,0,0,1-3,1.54A3.23,3.23,0,0,1,188,37.69a5.66,5.66,0,0,1-.32-1.95,5.76,5.76,0,0,1,.17-1.66,3.25,3.25,0,0,1,3.31-2.42c2.1,0,3.11,1.22,3.43,3.21a12.22,12.22,0,0,1,.11,1.28.23.23,0,0,1-.25.25h-4.86c-.06,0-.09,0-.09.1a2.22,2.22,0,0,0,.09.69,1.78,1.78,0,0,0,1.87,1.18A2.06,2.06,0,0,0,193.12,37.51Zm-3.52-3.19a2.75,2.75,0,0,0-.13.66c0,.06,0,.09.08.09h3.15a.08.08,0,0,0,.09-.09,3.1,3.1,0,0,0-.09-.57,1.54,1.54,0,0,0-1.6-1.19A1.45,1.45,0,0,0,189.6,34.32Z" transform="translate(-3.63 -8.9)" style="fill:#fff"/><path d="M200.87,31.86a.25.25,0,0,1,.14.32l-.25,1.29c0,.18-.12.21-.29.16a2,2,0,0,0-.8-.05,1.55,1.55,0,0,0-1.54,1.59v4.36a.23.23,0,0,1-.25.25h-1.31a.23.23,0,0,1-.25-.25V32a.23.23,0,0,1,.25-.25h1.31a.23.23,0,0,1,.25.25v.61c0,.08.05.11.1,0a2.09,2.09,0,0,1,1.81-1A1.91,1.91,0,0,1,200.87,31.86Z" transform="translate(-3.63 -8.9)" style="fill:#fff"/><path d="M204.42,39.58l-2.48-7.51c-.06-.19,0-.29.2-.29h1.48a.28.28,0,0,1,.28.21l1.49,5.2c0,.07.09.07.12,0L207,32a.27.27,0,0,1,.28-.22l1.47,0c.17,0,.27.11.21.28l-2.46,7.5a.27.27,0,0,1-.29.2H204.7A.26.26,0,0,1,204.42,39.58Z" transform="translate(-3.63 -8.9)" style="fill:#fff"/><path d="M210.23,29.64a1.17,1.17,0,1,1,1.17,1.14A1.1,1.1,0,0,1,210.23,29.64Zm.26,9.89V32a.24.24,0,0,1,.25-.25h1.32a.24.24,0,0,1,.25.25v7.5a.23.23,0,0,1-.25.25h-1.32A.23.23,0,0,1,210.49,39.53Z" transform="translate(-3.63 -8.9)" style="fill:#fff"/><path d="M219.29,37.15c0-.07.14-.25.3-.22l1.3.21a.21.21,0,0,1,.2.28,2.1,2.1,0,0,1-.06.31,3.15,3.15,0,0,1-2.63,2.13c-.08,0-.09.06,0,.11a1.79,1.79,0,0,1,.64,1.74c-.3,1.1-1.53,1.06-2.24.86a.25.25,0,0,1-.17-.3l.08-.48c0-.16.12-.22.3-.19.39.09.75,0,.84-.39s-.25-.88-.8-1.33l-.11-.05a3.24,3.24,0,0,1-2.52-2.21,5.91,5.91,0,0,1-.25-1.88,5.76,5.76,0,0,1,.25-1.84,3.29,3.29,0,0,1,3.31-2.24A3.35,3.35,0,0,1,221,33.8a1.9,1.9,0,0,1,.09.44c0,.17,0,.25-.2.28l-1.3.21a.22.22,0,0,1-.28-.19l-.05-.2a1.56,1.56,0,0,0-1.59-1.12,1.53,1.53,0,0,0-1.57,1.15,5.06,5.06,0,0,0-.16,1.39,6,6,0,0,0,.14,1.39,1.56,1.56,0,0,0,1.59,1.19,1.54,1.54,0,0,0,1.58-1.11A.37.37,0,0,0,219.29,37.15Z" transform="translate(-3.63 -8.9)" style="fill:#fff"/><path d="M222.72,37.54a5.79,5.79,0,0,1-.26-1.78,6,6,0,0,1,.25-1.78,3.34,3.34,0,0,1,3.4-2.32,3.29,3.29,0,0,1,3.28,2.3,5.27,5.27,0,0,1,.29,1.78,6,6,0,0,1-.27,1.79,3.54,3.54,0,0,1-6.69,0Zm4.95-.45a4.08,4.08,0,0,0,.17-1.31,5.27,5.27,0,0,0-.15-1.32,1.64,1.64,0,0,0-1.63-1.24,1.61,1.61,0,0,0-1.61,1.24,4.8,4.8,0,0,0-.16,1.32,4.94,4.94,0,0,0,.16,1.31,1.64,1.64,0,0,0,1.64,1.25A1.61,1.61,0,0,0,227.67,37.09Z" transform="translate(-3.63 -8.9)" style="fill:#fff"/><path d="M231.1,37.65v-.07a.23.23,0,0,1,.25-.25h1.26c.15,0,.25,0,.25.11v.1c0,.52.61,1,1.52,1s1.41-.4,1.41-.91-.93-.77-2-1.11c-1.25-.38-2.65-.88-2.65-2.42s1.27-2.39,3.12-2.39,3.19,1,3.19,2.38c0,.11-.09.19-.25.19H236c-.16,0-.25,0-.25-.1v-.09c0-.52-.55-1-1.49-1s-1.38.3-1.38.87.88.79,1.93,1.09c1.29.38,2.75.86,2.75,2.43s-1.28,2.38-3.21,2.38S231.1,38.92,231.1,37.65Z" transform="translate(-3.63 -8.9)" style="fill:#fff"/><path d="M247.37,28.82h1.32a.23.23,0,0,1,.25.26V39.53a.23.23,0,0,1-.25.25h-1.32a.23.23,0,0,1-.25-.25v-.4c0-.08-.06-.11-.11,0a2.18,2.18,0,0,1-1.78.82,3.05,3.05,0,0,1-3-2.19,6.62,6.62,0,0,1-.28-2,6,6,0,0,1,.27-1.91,3,3,0,0,1,3-2.19,2.25,2.25,0,0,1,1.78.77c.05.06.11,0,.11,0V29.08A.24.24,0,0,1,247.37,28.82Zm-.28,7a3.62,3.62,0,0,0-.39-1.87,1.32,1.32,0,0,0-1.17-.69,1.46,1.46,0,0,0-1.26.66,3.57,3.57,0,0,0-.45,1.91,3.66,3.66,0,0,0,.38,1.79,1.42,1.42,0,0,0,1.31.75,1.35,1.35,0,0,0,1.22-.74A3.68,3.68,0,0,0,247.09,35.78Z" transform="translate(-3.63 -8.9)" style="fill:#fff"/><path d="M256.19,37.51a.22.22,0,0,1,.35-.07l.75.59a.23.23,0,0,1,.06.34,3.45,3.45,0,0,1-3,1.54A3.23,3.23,0,0,1,251,37.69a5.66,5.66,0,0,1-.32-1.95,5.76,5.76,0,0,1,.17-1.66,3.25,3.25,0,0,1,3.31-2.42c2.1,0,3.11,1.22,3.43,3.21a12.22,12.22,0,0,1,.11,1.28.23.23,0,0,1-.25.25h-4.86c-.06,0-.09,0-.09.1a2.22,2.22,0,0,0,.09.69,1.78,1.78,0,0,0,1.87,1.18A2.06,2.06,0,0,0,256.19,37.51Zm-3.52-3.19a2.75,2.75,0,0,0-.13.66c0,.06,0,.09.08.09h3.15a.08.08,0,0,0,.09-.09,3.1,3.1,0,0,0-.09-.57,1.54,1.54,0,0,0-1.6-1.19A1.45,1.45,0,0,0,252.67,34.32Z" transform="translate(-3.63 -8.9)" style="fill:#fff"/><path d="M262.69,39.53V29.08a.24.24,0,0,1,.25-.26h1.32a.23.23,0,0,1,.25.26V39.53a.23.23,0,0,1-.25.25h-1.32A.23.23,0,0,1,262.69,39.53Z" transform="translate(-3.63 -8.9)" style="fill:#fff"/><path d="M273.26,34.46v5.07a.23.23,0,0,1-.25.25H271.7a.23.23,0,0,1-.25-.25V34.84a1.51,1.51,0,1,0-3,0v4.71a.23.23,0,0,1-.25.25h-1.32a.23.23,0,0,1-.25-.25V32a.24.24,0,0,1,.25-.25h1.32a.23.23,0,0,1,.25.25v.43c0,.08.05.11.09,0a2.3,2.3,0,0,1,1.93-.84A2.61,2.61,0,0,1,273.26,34.46Z" transform="translate(-3.63 -8.9)" style="fill:#fff"/><path d="M279.14,33.26h-1.52c-.06,0-.1,0-.1.09V37c0,.82.35,1.15,1.08,1.15H279a.23.23,0,0,1,.25.25v1.05a.24.24,0,0,1-.25.26l-.75,0c-1.5,0-2.46-.38-2.47-2V33.35a.09.09,0,0,0-.1-.09h-.81a.23.23,0,0,1-.25-.26V32a.23.23,0,0,1,.25-.25h.81c.06,0,.1,0,.1-.09V29.94a.23.23,0,0,1,.25-.25h1.23a.23.23,0,0,1,.25.25v1.75a.09.09,0,0,0,.1.09h1.52a.24.24,0,0,1,.25.25v1A.24.24,0,0,1,279.14,33.26Z" transform="translate(-3.63 -8.9)" style="fill:#fff"/><path d="M286.14,37.51a.21.21,0,0,1,.34-.07l.75.59a.23.23,0,0,1,.07.34,3.46,3.46,0,0,1-3,1.54A3.25,3.25,0,0,1,281,37.69a5.91,5.91,0,0,1-.31-1.95,5.76,5.76,0,0,1,.17-1.66,3.24,3.24,0,0,1,3.3-2.42c2.1,0,3.12,1.22,3.43,3.21a10,10,0,0,1,.11,1.28.23.23,0,0,1-.25.25h-4.85c-.07,0-.1,0-.1.1a1.94,1.94,0,0,0,.1.69,1.77,1.77,0,0,0,1.86,1.18A2.1,2.1,0,0,0,286.14,37.51Zm-3.53-3.19a2.36,2.36,0,0,0-.12.66c0,.06,0,.09.08.09h3.14c.07,0,.1,0,.1-.09a3,3,0,0,0-.1-.57,1.53,1.53,0,0,0-1.59-1.19A1.45,1.45,0,0,0,282.61,34.32Z" transform="translate(-3.63 -8.9)" style="fill:#fff"/><path d="M293.89,31.86a.27.27,0,0,1,.14.32l-.25,1.29c0,.18-.12.21-.3.16a2,2,0,0,0-.8-.05,1.54,1.54,0,0,0-1.53,1.59v4.36a.23.23,0,0,1-.25.25h-1.32a.23.23,0,0,1-.25-.25V32a.24.24,0,0,1,.25-.25h1.32a.23.23,0,0,1,.25.25v.61c0,.08.05.11.09,0a2.1,2.1,0,0,1,1.82-1A1.91,1.91,0,0,1,293.89,31.86Z" transform="translate(-3.63 -8.9)" style="fill:#fff"/><path d="M300.36,37.51a.21.21,0,0,1,.34-.07l.75.59a.23.23,0,0,1,.07.34,3.46,3.46,0,0,1-3,1.54,3.25,3.25,0,0,1-3.29-2.22,5.91,5.91,0,0,1-.31-1.95,5.76,5.76,0,0,1,.17-1.66,3.24,3.24,0,0,1,3.3-2.42c2.1,0,3.12,1.22,3.43,3.21a10,10,0,0,1,.11,1.28.23.23,0,0,1-.25.25h-4.85a.09.09,0,0,0-.1.1,2.19,2.19,0,0,0,.1.69,1.77,1.77,0,0,0,1.86,1.18A2.1,2.1,0,0,0,300.36,37.51Zm-3.53-3.19a2.79,2.79,0,0,0-.12.66c0,.06,0,.09.08.09h3.15A.08.08,0,0,0,300,35a4.29,4.29,0,0,0-.09-.57,1.55,1.55,0,0,0-1.6-1.19A1.45,1.45,0,0,0,296.83,34.32Z" transform="translate(-3.63 -8.9)" style="fill:#fff"/><path d="M303.26,37.65v-.07a.23.23,0,0,1,.25-.25h1.25c.16,0,.25,0,.25.11v.1c0,.52.61,1,1.52,1s1.41-.4,1.41-.91-.93-.77-2-1.11c-1.25-.38-2.65-.88-2.65-2.42s1.27-2.39,3.12-2.39,3.19,1,3.19,2.38c0,.11-.09.19-.25.19h-1.2c-.16,0-.25,0-.25-.1v-.09c0-.52-.55-1-1.49-1s-1.38.3-1.38.87.88.79,1.93,1.09c1.3.38,2.75.86,2.75,2.43s-1.28,2.38-3.21,2.38S303.26,38.92,303.26,37.65Z" transform="translate(-3.63 -8.9)" style="fill:#fff"/><path d="M310.84,37.65v-.07a.23.23,0,0,1,.25-.25h1.25c.16,0,.25,0,.25.11v.1c0,.52.61,1,1.52,1s1.41-.4,1.41-.91-.92-.77-2-1.11c-1.25-.38-2.64-.88-2.64-2.42s1.26-2.39,3.11-2.39,3.2,1,3.2,2.38c0,.11-.1.19-.25.19h-1.21c-.16,0-.25,0-.25-.1v-.09c0-.52-.55-1-1.49-1s-1.38.3-1.38.87.88.79,1.93,1.09c1.3.38,2.75.86,2.75,2.43s-1.28,2.38-3.2,2.38S310.84,38.92,310.84,37.65Z" transform="translate(-3.63 -8.9)" style="fill:#fff"/><path d="M324.16,37.51a.22.22,0,0,1,.35-.07l.75.59a.22.22,0,0,1,.06.34,3.45,3.45,0,0,1-3,1.54A3.24,3.24,0,0,1,319,37.69a5.66,5.66,0,0,1-.32-1.95,5.73,5.73,0,0,1,.18-1.66,3.23,3.23,0,0,1,3.3-2.42c2.1,0,3.12,1.22,3.43,3.21a12.22,12.22,0,0,1,.11,1.28.23.23,0,0,1-.25.25h-4.86c-.06,0-.09,0-.09.1a2.22,2.22,0,0,0,.09.69,1.78,1.78,0,0,0,1.87,1.18A2.06,2.06,0,0,0,324.16,37.51Zm-3.52-3.19a2.36,2.36,0,0,0-.12.66c0,.06,0,.09.07.09h3.15a.08.08,0,0,0,.09-.09,3.1,3.1,0,0,0-.09-.57,1.54,1.54,0,0,0-1.6-1.19A1.45,1.45,0,0,0,320.64,34.32Z" transform="translate(-3.63 -8.9)" style="fill:#fff"/><path d="M150.73,52.13V48.34a3.6,3.6,0,0,1,3.93-3.71c2.34,0,3.89,1.49,3.89,3.46v.06a.23.23,0,0,1-.25.25H157c-.15,0-.25-.06-.25-.14v-.12a1.92,1.92,0,0,0-2.09-2,2,2,0,0,0-2.12,2.09v3.91a2,2,0,0,0,2.2,2.08,1.79,1.79,0,0,0,2-1.85v-1a.08.08,0,0,0-.09-.09h-1.85a.24.24,0,0,1-.25-.25v-1a.24.24,0,0,1,.25-.25h3.49a.23.23,0,0,1,.25.25V52a3.55,3.55,0,0,1-3.89,3.81A3.61,3.61,0,0,1,150.73,52.13Z" transform="translate(-3.63 -8.9)" style="fill:#fff"/><path d="M165.59,53.44a.22.22,0,0,1,.34-.08l.75.6a.23.23,0,0,1,.07.34,3.46,3.46,0,0,1-3,1.54,3.25,3.25,0,0,1-3.29-2.23,5.8,5.8,0,0,1-.31-1.94,5.72,5.72,0,0,1,.17-1.66,3.24,3.24,0,0,1,3.3-2.42c2.1,0,3.12,1.22,3.43,3.21a8.48,8.48,0,0,1,.11,1.28.23.23,0,0,1-.25.25H162c-.06,0-.1,0-.1.09a2.1,2.1,0,0,0,.1.69,1.77,1.77,0,0,0,1.86,1.19A2.08,2.08,0,0,0,165.59,53.44Zm-3.52-3.19a2.34,2.34,0,0,0-.13.66c0,.06,0,.09.08.09h3.15a.08.08,0,0,0,.09-.09,4.29,4.29,0,0,0-.09-.57,1.55,1.55,0,0,0-1.6-1.19A1.43,1.43,0,0,0,162.07,50.25Z" transform="translate(-3.63 -8.9)" style="fill:#fff"/><path d="M173.34,47.79a.25.25,0,0,1,.14.31l-.25,1.3c0,.18-.12.21-.3.16a2,2,0,0,0-.79-.05,1.54,1.54,0,0,0-1.54,1.58v4.37a.23.23,0,0,1-.25.25H169a.23.23,0,0,1-.25-.25V48a.23.23,0,0,1,.25-.25h1.31a.23.23,0,0,1,.25.25v.61c0,.08.05.11.1,0a2.07,2.07,0,0,1,1.81-1A1.91,1.91,0,0,1,173.34,47.79Z" transform="translate(-3.63 -8.9)" style="fill:#fff"/><path d="M181,50.25v5.21a.23.23,0,0,1-.25.25H179.4a.23.23,0,0,1-.25-.25v-.39c0-.08-.05-.09-.11,0a3.09,3.09,0,0,1-2.25.82c-1.46,0-2.65-.72-2.65-2.37s1.18-2.58,3.26-2.58h1.66a.08.08,0,0,0,.09-.09v-.36c0-.8-.47-1.29-1.45-1.29-.76,0-1.24.28-1.4.74-.05.15-.12.22-.28.2l-1.41-.17c-.15,0-.25-.09-.23-.2.18-1.24,1.47-2.13,3.27-2.13C179.67,47.59,181,48.71,181,50.25ZM179.15,53v-.72c0-.07,0-.1-.09-.1h-1.3c-1.1,0-1.8.43-1.8,1.21s.58,1,1.33,1A1.67,1.67,0,0,0,179.15,53Z" transform="translate(-3.63 -8.9)" style="fill:#fff"/><path d="M182.79,55.46V45a.23.23,0,0,1,.25-.25h1.31a.23.23,0,0,1,.25.25V55.46a.23.23,0,0,1-.25.25H183A.23.23,0,0,1,182.79,55.46Z" transform="translate(-3.63 -8.9)" style="fill:#fff"/><path d="M194.81,44.75h1.32a.23.23,0,0,1,.25.25V55.46a.23.23,0,0,1-.25.25h-1.32a.23.23,0,0,1-.25-.25v-.41c0-.07-.06-.1-.11,0a2.18,2.18,0,0,1-1.78.82,3.05,3.05,0,0,1-3-2.19,6.31,6.31,0,0,1-.28-2,6,6,0,0,1,.27-1.91,3,3,0,0,1,3-2.19,2.28,2.28,0,0,1,1.78.76c.05.07.11,0,.11,0V45A.24.24,0,0,1,194.81,44.75Zm-.28,7a3.6,3.6,0,0,0-.39-1.86,1.32,1.32,0,0,0-1.17-.69,1.46,1.46,0,0,0-1.26.66,3.55,3.55,0,0,0-.45,1.91,3.49,3.49,0,0,0,.38,1.78,1.41,1.41,0,0,0,1.31.76,1.35,1.35,0,0,0,1.22-.74A3.7,3.7,0,0,0,194.53,51.7Z" transform="translate(-3.63 -8.9)" style="fill:#fff"/><path d="M198.39,53.47a5.54,5.54,0,0,1-.27-1.78,6.09,6.09,0,0,1,.25-1.79,3.35,3.35,0,0,1,3.4-2.31,3.3,3.3,0,0,1,3.29,2.3,5.54,5.54,0,0,1,.28,1.78,6,6,0,0,1-.27,1.79,3.54,3.54,0,0,1-6.68,0Zm4.94-.45a4.13,4.13,0,0,0,.18-1.32,5.2,5.2,0,0,0-.16-1.31,1.64,1.64,0,0,0-1.63-1.24,1.61,1.61,0,0,0-1.61,1.24A4.77,4.77,0,0,0,200,51.7a5,5,0,0,0,.16,1.32,1.64,1.64,0,0,0,1.64,1.25A1.61,1.61,0,0,0,203.33,53Z" transform="translate(-3.63 -8.9)" style="fill:#fff"/><path d="M216.94,55.51l-.48-1.61a.1.1,0,0,0-.11-.08h-4.1c-.05,0-.1,0-.11.08l-.49,1.61a.27.27,0,0,1-.28.2h-1.43c-.17,0-.25-.11-.2-.28L213.09,45a.28.28,0,0,1,.28-.21h1.84a.28.28,0,0,1,.28.21l3.36,10.47c.05.17,0,.28-.2.28h-1.43A.27.27,0,0,1,216.94,55.51Zm-4.24-3.12h3.19c.07,0,.1,0,.08-.11L214.36,47c0-.08-.09-.08-.13,0l-1.61,5.32C212.61,52.36,212.64,52.39,212.7,52.39Z" transform="translate(-3.63 -8.9)" style="fill:#fff"/><path d="M220.36,55.46V45a.23.23,0,0,1,.25-.25h1.32a.24.24,0,0,1,.25.25V55.46a.23.23,0,0,1-.25.25h-1.32A.23.23,0,0,1,220.36,55.46Z" transform="translate(-3.63 -8.9)" style="fill:#fff"/><path d="M229.44,53.44a.23.23,0,0,1,.35-.08l.75.6a.23.23,0,0,1,.06.34,3.45,3.45,0,0,1-3,1.54,3.23,3.23,0,0,1-3.28-2.23,5.56,5.56,0,0,1-.32-1.94,5.72,5.72,0,0,1,.17-1.66,3.25,3.25,0,0,1,3.31-2.42c2.1,0,3.11,1.22,3.43,3.21a12.22,12.22,0,0,1,.11,1.28.23.23,0,0,1-.25.25h-4.86a.08.08,0,0,0-.09.09,2.14,2.14,0,0,0,.09.69,1.77,1.77,0,0,0,1.87,1.19A2.06,2.06,0,0,0,229.44,53.44Zm-3.52-3.19a2.75,2.75,0,0,0-.13.66c0,.06,0,.09.08.09H229a.08.08,0,0,0,.09-.09,3.1,3.1,0,0,0-.09-.57,1.54,1.54,0,0,0-1.6-1.19A1.45,1.45,0,0,0,225.92,50.25Z" transform="translate(-3.63 -8.9)" style="fill:#fff"/><path d="M239.28,50.39v5.07a.23.23,0,0,1-.25.25h-1.32a.23.23,0,0,1-.25-.25V50.77a1.5,1.5,0,1,0-3,0v4.71a.23.23,0,0,1-.26.25h-1.31a.23.23,0,0,1-.25-.25V48a.23.23,0,0,1,.25-.25h1.31a.24.24,0,0,1,.26.25v.43c0,.07,0,.11.09,0a2.27,2.27,0,0,1,1.92-.84A2.61,2.61,0,0,1,239.28,50.39Z" transform="translate(-3.63 -8.9)" style="fill:#fff"/><path d="M245.15,49.18h-1.52c-.06,0-.09,0-.09.1V53c0,.82.34,1.15,1.08,1.15H245a.23.23,0,0,1,.25.25v1.05a.24.24,0,0,1-.25.26l-.76,0c-1.5,0-2.45-.38-2.47-2V49.28a.09.09,0,0,0-.09-.1h-.82a.23.23,0,0,1-.25-.25V48a.24.24,0,0,1,.25-.25h.82a.08.08,0,0,0,.09-.09V45.87a.23.23,0,0,1,.25-.26h1.24a.24.24,0,0,1,.25.26v1.75a.08.08,0,0,0,.09.09h1.52a.23.23,0,0,1,.25.25v1A.23.23,0,0,1,245.15,49.18Z" transform="translate(-3.63 -8.9)" style="fill:#fff"/><path d="M252.15,53.44a.23.23,0,0,1,.35-.08l.75.6a.23.23,0,0,1,.06.34,3.46,3.46,0,0,1-3,1.54A3.25,3.25,0,0,1,247,53.61a5.8,5.8,0,0,1-.31-1.94,5.72,5.72,0,0,1,.17-1.66,3.25,3.25,0,0,1,3.31-2.42c2.1,0,3.11,1.22,3.43,3.21a12.22,12.22,0,0,1,.11,1.28.23.23,0,0,1-.26.25h-4.85a.08.08,0,0,0-.09.09,2.14,2.14,0,0,0,.09.69,1.77,1.77,0,0,0,1.86,1.19A2.07,2.07,0,0,0,252.15,53.44Zm-3.52-3.19a2.75,2.75,0,0,0-.13.66c0,.06,0,.09.08.09h3.15a.08.08,0,0,0,.09-.09,3.1,3.1,0,0,0-.09-.57,1.54,1.54,0,0,0-1.6-1.19A1.45,1.45,0,0,0,248.63,50.25Z" transform="translate(-3.63 -8.9)" style="fill:#fff"/><path d="M253.58,58.67v-1c0-.16.09-.25.27-.24,1.14,0,1.58-.44,1.58-1.42V48a.23.23,0,0,1,.25-.25H257a.23.23,0,0,1,.25.25v8c0,2.19-.83,3-3.41,3A.23.23,0,0,1,253.58,58.67Zm1.6-13.06a1.17,1.17,0,1,1,1.15,1.15A1.11,1.11,0,0,1,255.18,45.61Z" transform="translate(-3.63 -8.9)" style="fill:#fff"/><path d="M259.23,53.47a5.84,5.84,0,0,1-.26-1.78,6.09,6.09,0,0,1,.25-1.79,3.34,3.34,0,0,1,3.39-2.31,3.29,3.29,0,0,1,3.29,2.3,5.28,5.28,0,0,1,.28,1.78,6,6,0,0,1-.26,1.79,3.54,3.54,0,0,1-6.69,0Zm4.95-.45a4.45,4.45,0,0,0,.17-1.32,5.25,5.25,0,0,0-.15-1.31,1.68,1.68,0,0,0-3.25,0,5.25,5.25,0,0,0-.15,1.31A5.45,5.45,0,0,0,261,53a1.65,1.65,0,0,0,1.65,1.25A1.61,1.61,0,0,0,264.18,53Z" transform="translate(-3.63 -8.9)" style="fill:#fff"/><path d="M3.63,13.84A4.85,4.85,0,0,1,8.77,8.9a4.79,4.79,0,0,1,5.08,4.94,4.8,4.8,0,0,1-5.08,5A4.86,4.86,0,0,1,3.63,13.84ZM4.8,57.16V24.33a1,1,0,0,1,1.09-1.1h5.76a1,1,0,0,1,1.1,1.1V57.16a1,1,0,0,1-1.1,1.1H5.89A1,1,0,0,1,4.8,57.16Z" transform="translate(-3.63 -8.9)" style="fill:#fff"/><path d="M21.32,42.56V26c0-9.8,6.85-16.24,17.2-16.24s17.07,6.51,17.07,15.15v.27a1,1,0,0,1-1.1,1.1H48.8c-.68,0-1.1-.28-1.1-.62v-.55c0-4.87-3.56-8.5-9.18-8.5s-9.25,3.63-9.25,9.12V42.83c0,5.49,4,9.12,9.59,9.12,5.42,0,8.84-3,8.84-8.09V39.68a.36.36,0,0,0-.41-.41H39.2a1,1,0,0,1-1.09-1.1V33.65a1,1,0,0,1,1.09-1.1H54.49a1,1,0,0,1,1.1,1.1v8.5c0,10.69-6.79,16.65-17.07,16.65S21.32,52.29,21.32,42.56Z" transform="translate(-3.63 -8.9)" style="fill:#fff"/><path d="M92.11,57.36,90,50.3a.44.44,0,0,0-.48-.34h-18a.44.44,0,0,0-.48.34L69,57.36a1.19,1.19,0,0,1-1.24.9H61.48c-.76,0-1.1-.48-.9-1.24L75.25,11.17a1.18,1.18,0,0,1,1.24-.89h8a1.18,1.18,0,0,1,1.23.89L100.48,57c.2.76-.14,1.24-.89,1.24H93.35A1.19,1.19,0,0,1,92.11,57.36ZM73.54,43.72h14c.28,0,.41-.13.35-.48l-7.06-23.3c-.14-.34-.42-.34-.55,0L73.2,43.24C73.13,43.59,73.27,43.72,73.54,43.72Z" transform="translate(-3.63 -8.9)" style="fill:#fff"/><line x1="122.27" y1="0.27" x2="122.27" y2="51.27" style="fill:none;stroke:#fff;stroke-miterlimit:10"/></g></g></svg>